<svg width="33" height="38" viewBox="0 0 33 38" fill="none" xmlns="http://www.w3.org/2000/svg">
<rect x="1" y="5.38461" width="31" height="31" rx="4" stroke="black" stroke-width="2"/>
<path d="M8.19141 1C8.19141 0.447715 7.74369 0 7.19141 0C6.63912 0 6.19141 0.447715 6.19141 1H8.19141ZM6.19141 9.03846C6.19141 9.59075 6.63912 10.0385 7.19141 10.0385C7.74369 10.0385 8.19141 9.59075 8.19141 9.03846H6.19141ZM6.19141 1V9.03846H8.19141V1H6.19141Z" fill="black"/>
<path d="M27.2305 1C27.2305 0.447715 26.7828 0 26.2305 0C25.6782 0 25.2305 0.447715 25.2305 1H27.2305ZM25.2305 9.03846C25.2305 9.59075 25.6782 10.0385 26.2305 10.0385C26.7828 10.0385 27.2305 9.59075 27.2305 9.03846H25.2305ZM25.2305 1V9.03846H27.2305V1H25.2305Z" fill="black"/>
<line x1="0.845703" y1="13.5385" x2="31.3072" y2="13.5385" stroke="black" stroke-width="2"/>
<path d="M20.4609 24.8462L26.0763 24.8462L26.0763 30.4615L20.4609 30.4615L20.4609 24.8462Z" stroke="black" stroke-width="2"/>
</svg>
